<?xml version="1.0" standalone="no"?>
<!DOCTYPE svg PUBLIC "-//W3C//DTD SVG 20010904//EN"
 "http://www.w3.org/TR/2001/REC-SVG-20010904/DTD/svg10.dtd">
<svg version="1.0" xmlns="http://www.w3.org/2000/svg"
 width="500.000000pt" height="500.000000pt" viewBox="0 0 500.000000 500.000000"
 preserveAspectRatio="xMidYMid meet">
<metadata>
Created by potrace 1.16, written by Peter Selinger 2001-2019
</metadata>
<g transform="translate(0.000000,500.000000) scale(0.100000,-0.100000)"
fill="#000000" stroke="none">
<path d="M2505 4655 c-7 -129 -8 -135 -29 -135 -11 0 -28 -5 -36 -10 -16 -10
-18 -19 -26 -148 -5 -72 -3 -85 12 -97 17 -12 17 -23 6 -176 -26 -362 -71
-845 -107 -1139 -24 -198 -37 -319 -28 -272 6 30 17 28 42 -6 l20 -29 -30 -22
c-17 -13 -28 -25 -25 -29 4 -3 19 7 34 21 l28 27 21 -22 c40 -45 38 -48 -26
-48 -56 0 -60 2 -69 28 -10 25 -10 25 -11 4 -2 -48 -34 -152 -47 -152 -25 0
-64 -23 -70 -42 -3 -10 2 -51 12 -92 l17 -72 -57 -170 c-31 -93 -85 -239 -119
-324 l-62 -155 -62 -3 c-56 -3 -63 -6 -67 -25 -12 -60 -14 -120 -6 -171 l9
-56 -104 -148 c-213 -300 -260 -369 -278 -402 -10 -19 -45 -71 -78 -115 -76
-101 -299 -421 -299 -429 0 -4 129 -5 288 -4 l287 3 6 90 c13 186 71 321 217
508 40 51 166 151 235 185 126 62 374 104 500 83 186 -31 393 -121 486 -213
47 -46 120 -142 174 -230 69 -111 127 -301 127 -420 l0 -38 270 0 c269 0 271
0 260 20 -12 23 -235 358 -306 460 -24 36 -62 97 -84 135 -21 39 -65 108 -98
155 -33 47 -99 144 -146 217 l-87 131 10 60 c9 54 7 111 -5 170 -4 20 -10 22
-62 22 l-58 0 -81 198 c-44 108 -97 248 -117 310 l-36 113 14 102 c7 56 11
107 9 114 -3 7 -23 18 -44 25 -33 9 -41 17 -49 47 -17 66 -60 305 -69 381 -5
41 -9 59 -10 40 l-1 -35 -32 32 -32 32 24 26 25 27 7 -24 c4 -13 5 15 2 62 -6
103 -41 442 -43 418 -1 -24 -14 -23 -36 2 -18 20 -18 21 1 34 17 13 20 12 27
-2 4 -9 5 17 3 58 -38 661 -40 709 -23 728 23 25 24 154 2 172 -9 7 -14 24
-13 39 3 22 -2 28 -29 36 -33 9 -33 10 -33 72 0 35 -4 63 -10 63 -6 0 -10 30
-10 70 0 121 -17 76 -25 -65z m168 -2632 c15 -76 29 -158 32 -183 4 -25 15
-87 26 -137 10 -51 19 -97 19 -103 0 -6 -86 -10 -246 -10 l-246 0 6 23 c4 12
14 56 22 97 8 41 24 111 34 155 11 44 29 123 40 175 11 52 22 101 25 108 3 9
39 12 133 12 l129 0 26 -137z m-303 -502 l0 -46 -195 0 -195 0 0 46 0 47 195
0 195 -1 0 -46z m540 0 l0 -46 -177 2 c-98 1 -186 2 -195 2 -14 1 -18 10 -18
45 l0 44 195 0 195 0 0 -47z"/>
</g>
</svg>
